<svg xmlns:xlink="http://www.w3.org/1999/xlink" xmlns="http://www.w3.org/2000/svg" height="24" viewBox="0 0 24 24" width="24" aria-hidden="true"><path d="M17.979 18.553c.476 0 .813-.366.813-.835a.807.807 0 0 0-.235-.586l-3.45-3.457a5.61 5.61 0 0 0 1.158-3.413c0-3.098-2.535-5.633-5.633-5.633C7.542 4.63 5 7.156 5 10.262c0 3.098 2.534 5.632 5.632 5.632a5.614 5.614 0 0 0 3.274-1.055l3.472 3.472a.835.835 0 0 0 .6.242zm-7.347-3.875c-2.417 0-4.416-2-4.416-4.416 0-2.417 2-4.417 4.416-4.417 2.417 0 4.417 2 4.417 4.417s-2 4.416-4.417 4.416z" fill-opacity="0.95" fill="#D60017"></path></svg>